<?xml version="1.0"?>
<svg width="184" height="49.54" xmlns="http://www.w3.org/2000/svg" xmlns:svg="http://www.w3.org/2000/svg" data-name="Layer 2">
 <defs>
  <style>.cls-1 {
        fill: #014386;
      }

      .cls-2 {
        fill: #fff;
      }

      .cls-3 {
        fill: #56b146;
      }

      .cls-4 {
        fill: none;
        stroke: #56b146;
        stroke-width: .4px;
      }</style>
 </defs>
 <g class="layer" display="inline">
  <title>Layer 1</title>
  <path d="m160.51,2.98c-160.51,-2.98 -160.51,-2.98 -160.51,-2.98l161.37,3.31l0.85,0.29l0.86,0.26" fill="none" id="svg_21" stroke="#ffffff" transform="matrix(1 0 0 1 0 0)"/>
  <g id="svg_32" transform="translate(-0.1 0) matrix(0.994017 0 0 0.994017 0.600792 0.289162)">
   <g data-name="Vrstva 1" id="Vrstva_1" transform="matrix(1.74447 0 0 1.7862 0.187134 4.05369)">
    <path class="cls-1" d="m37.57,4.78l0,-2.66c0,-1.02 -0.06,-1.12 -0.78,-1.29c-0.57,-0.14 -0.59,-0.16 -0.59,-0.26c0,-0.02 0.02,-0.07 0.04,-0.14l0.09,-0.23c0.06,-0.17 0.11,-0.19 0.45,-0.19l4.33,0c0.28,0 0.38,0.03 0.38,0.12c0,0.03 -0.02,0.09 -0.04,0.14l-0.08,0.26c-0.08,0.17 -0.11,0.21 -0.44,0.26c-0.65,0.12 -0.85,0.44 -0.85,1.33l0,7.46c0,1 0.08,1.12 0.78,1.28c0.57,0.14 0.59,0.16 0.59,0.26c0,0.04 -0.02,0.09 -0.04,0.14l-0.07,0.21c-0.08,0.17 -0.13,0.21 -0.48,0.21l-4.33,0c-0.28,0 -0.38,-0.04 -0.38,-0.12c0,-0.04 0.02,-0.09 0.04,-0.14l0.08,-0.26c0.08,-0.17 0.11,-0.19 0.46,-0.26c0.65,-0.14 0.84,-0.44 0.84,-1.31l0,-3.76l-5.3,0l0,3.76c0,1 0.08,1.12 0.78,1.28c0.57,0.14 0.59,0.16 0.59,0.26c0,0.02 -0.02,0.07 -0.04,0.14l-0.09,0.21c-0.06,0.19 -0.11,0.21 -0.46,0.21l-4.33,0c-0.28,0 -0.38,-0.04 -0.38,-0.14c0,-0.02 0.02,-0.07 0.04,-0.12l0.08,-0.26c0.08,-0.17 0.11,-0.19 0.44,-0.26c0.66,-0.14 0.85,-0.44 0.85,-1.31l0,-7.48c0,-1.02 -0.08,-1.14 -0.78,-1.29c-0.57,-0.14 -0.59,-0.16 -0.59,-0.26c0,-0.04 0.02,-0.09 0.04,-0.14l0.08,-0.23c0.08,-0.17 0.11,-0.19 0.47,-0.19l4.33,0c0.28,0 0.38,0.03 0.38,0.12c0,0.03 -0.02,0.09 -0.04,0.14l-0.08,0.26c-0.08,0.17 -0.11,0.21 -0.45,0.26c-0.65,0.12 -0.83,0.44 -0.83,1.33l0,2.66l5.3,0" id="svg_1"/>
    <path class="cls-1" d="m56.86,5.9c0,2.82 -0.13,3.45 -0.87,4.38c-0.89,1.07 -2.13,1.59 -3.8,1.59c-1.99,0 -3.61,-0.7 -4.37,-1.87c-0.47,-0.75 -0.63,-1.63 -0.63,-3.62l0,-4.28c0,-1 -0.08,-1.12 -0.78,-1.29c-0.57,-0.12 -0.59,-0.14 -0.59,-0.25c0,-0.04 0.02,-0.09 0.04,-0.14l0.08,-0.23c0.08,-0.17 0.13,-0.19 0.47,-0.19l4.33,0c0.29,0 0.38,0.03 0.38,0.12c0,0.03 -0.02,0.09 -0.04,0.14l-0.08,0.24c-0.08,0.19 -0.11,0.21 -0.46,0.28c-0.65,0.14 -0.83,0.44 -0.83,1.31l0,4.32c0,1.8 0.13,2.52 0.59,3.17c0.49,0.68 1.25,1.03 2.28,1.03c1.18,0 2.09,-0.49 2.54,-1.4c0.3,-0.58 0.36,-1.09 0.36,-2.99l0,-4.12c0,-1 -0.08,-1.12 -0.78,-1.29q-0.59,-0.14 -0.59,-0.25s0.02,-0.07 0.04,-0.14l0.08,-0.23c0.08,-0.17 0.13,-0.19 0.47,-0.19l3.17,0c0.3,0 0.38,0.03 0.38,0.12c0,0.05 0,0.09 -0.02,0.14l-0.09,0.24c-0.08,0.19 -0.12,0.21 -0.44,0.28c-0.64,0.12 -0.85,0.44 -0.85,1.31l0,3.8" id="svg_2"/>
    <path class="cls-1" d="m63.66,2.1c0,-0.67 -0.08,-0.89 -0.32,-1.09c-0.17,-0.11 -0.23,-0.12 -0.97,-0.3c-0.11,-0.04 -0.19,-0.09 -0.19,-0.16c0,-0.04 0.02,-0.07 0.04,-0.14l0.08,-0.23c0.08,-0.16 0.15,-0.19 0.55,-0.19l5.35,0c2.28,0 3.81,0.3 4.95,0.94c1.52,0.88 2.32,2.4 2.32,4.45c0,2.31 -0.99,4.17 -2.85,5.32c-1.29,0.81 -2.79,1.17 -4.78,1.17c-1.46,0 -3.11,-0.16 -3.66,-0.37c-0.46,-0.17 -0.51,-0.35 -0.51,-1.45l0,-7.95m2.52,6.46c0,1.24 0.13,1.63 0.61,1.94c0.44,0.26 0.97,0.39 1.73,0.39c2.75,0 4.29,-1.84 4.29,-5.09c0,-2.22 -0.65,-3.62 -1.99,-4.29c-0.78,-0.4 -1.5,-0.51 -3.25,-0.51l-1.39,0l0,7.56z" id="svg_3"/>
    <path class="cls-1" d="m83.68,4.81l4.04,0c0.32,0 0.4,0.03 0.4,0.14c0,0.04 -0.02,0.07 -0.04,0.1l-0.29,0.47c-0.17,0.3 -0.23,0.31 -0.74,0.31l-3.38,0l0,2.91c0,1.72 0.13,1.89 1.46,1.89l1.29,0c0.93,0 1.54,-0.3 1.99,-1c0.13,-0.23 0.23,-0.32 0.32,-0.32c0.02,0 0.08,0 0.1,0.02l0.28,0.07c0.15,0.05 0.17,0.09 0.17,0.3l0,1.44c0,0.4 -0.21,0.53 -0.97,0.53l-5.52,0c-1.04,0 -1.33,-0.07 -1.52,-0.35c-0.13,-0.21 -0.13,-0.28 -0.13,-1.49l0,-7.71c0,-0.91 -0.15,-1.14 -0.87,-1.29c-0.57,-0.14 -0.61,-0.16 -0.61,-0.26c0,-0.04 0.02,-0.09 0.04,-0.14l0.08,-0.23c0.08,-0.17 0.15,-0.19 0.55,-0.19l7.5,0c0.53,0 0.64,0.09 0.64,0.49l0,1.14c0,0.16 -0.02,0.21 -0.11,0.28l-0.25,0.21s-0.08,0.05 -0.12,0.05c-0.06,0 -0.11,-0.05 -0.25,-0.24c-0.57,-0.79 -0.82,-0.91 -1.77,-0.91l-2.32,0l0,3.78" id="svg_4"/>
    <path class="cls-1" d="m101.92,0l2.14,0l0,0.35c0,0.3 -0.02,0.32 -0.82,0.66c-0.61,0.28 -0.74,0.4 -1.63,1.42l-2.49,2.64c4.1,4.59 4.93,5.48 5.73,6.09l0,0.51l-1.9,0c-0.95,0 -1.14,-0.14 -2.33,-1.58l-3.49,-4.13l0,3.59c0,1 0.08,1.14 0.78,1.3c0.55,0.14 0.59,0.16 0.59,0.26c0,0.04 -0.02,0.07 -0.04,0.14l-0.08,0.21c-0.08,0.17 -0.13,0.21 -0.48,0.21l-4.33,0c-0.29,0 -0.38,-0.04 -0.38,-0.14c0,-0.04 0.02,-0.07 0.04,-0.12l0.08,-0.26c0.08,-0.17 0.11,-0.21 0.44,-0.26c0.66,-0.14 0.85,-0.44 0.85,-1.33l0,-7.46c0,-1 -0.08,-1.12 -0.78,-1.29c-0.55,-0.12 -0.59,-0.14 -0.59,-0.25c0,-0.04 0.02,-0.09 0.04,-0.14l0.08,-0.23c0.08,-0.17 0.13,-0.19 0.47,-0.19l4.33,0c0.29,0 0.38,0.03 0.38,0.12c0,0.03 -0.02,0.09 -0.04,0.14l-0.07,0.24c-0.08,0.19 -0.12,0.21 -0.44,0.28c-0.65,0.12 -0.85,0.44 -0.85,1.31l0,3.27l4.78,-5.37" fill="black" id="svg_5"/>
    <line class="cls-4" id="svg_6" x1="28.45" x2="105.21" y1="15.02" y2="15.02"/>
    <path class="cls-3" d="m16.66,9.59c-0.13,0.27 -0.29,0.88 -0.81,3.11c-0.55,2.38 -0.86,3.96 -0.92,4.74c-0.13,1.85 -0.18,2.91 -0.14,3.17c-0.23,0.21 -0.69,0.48 -1.38,0.8c-0.69,0.33 -1.19,0.49 -1.48,0.49c-0.1,0 -0.16,-0.01 -0.19,-0.04c-0.07,-0.36 -0.03,-1.12 0.1,-2.28c0.13,-1.01 0.24,-1.73 0.22,-1.69l1.72,-7.3l-6.32,2.77c-0.36,0.75 -0.45,0.9 -0.72,1.68c-0.1,0.28 -0.19,0.56 -0.28,0.84c-0.42,1.36 -0.71,2.75 -0.87,4.19l0.05,0.36c0.19,-0.15 0.36,-0.28 0.52,-0.4c0.1,0.21 0.14,0.42 0.14,0.62c0,0.41 -0.27,0.89 -0.82,1.42c-0.05,0.03 -0.1,0.07 -0.15,0.1c-0.22,0.14 -0.42,0.26 -0.6,0.37c0.03,0 0.07,0.01 0.1,0.01l14.78,0c2.65,0 4.81,-2.17 4.81,-4.81l0,-11.53c-0.45,0.2 -0.93,0.41 -1.46,0.64c-1.44,0.63 -1.59,0.72 -6.28,2.73" id="svg_7"/>
    <path class="cls-3" d="m17.16,7.83c1.55,-0.5 3.83,-1.32 6.83,-2.46c0.14,-0.06 0.28,-0.12 0.42,-0.18l0,-0.34c0,-2.65 -2.17,-4.81 -4.82,-4.81l-0.6,0c-0.01,0.65 -0.22,1.62 -0.63,2.92c-0.23,1.04 -0.63,2.66 -1.21,4.87" id="svg_8"/>
    <path class="cls-3" d="m4.98,14.33c-0.35,0.1 -0.85,0.27 -1.53,0.55c0,0.27 0.29,0.48 0.87,0.63c-0.03,0.3 -0.4,0.58 -1.11,0.85c-0.58,0.24 -1.07,0.36 -1.45,0.36c-0.55,0 -0.95,-0.22 -1.21,-0.67c-0.03,-0.21 0.08,-0.48 0.32,-0.83c0.24,-0.34 0.46,-0.59 0.65,-0.74c0.61,-0.42 2,-1.16 4.17,-2.23c0.42,-1.28 1.07,-3.2 1.94,-5.76c0.68,-1.99 1.08,-3.6 1.21,-4.82c0.23,-0.3 0.44,-0.57 0.63,-0.83c0.19,-0.25 0.43,-0.38 0.73,-0.38c0.32,0 0.49,0.21 0.49,0.62c0,0.51 -0.23,1.65 -0.68,3.44c-0.45,1.43 -1.13,3.69 -2.04,6.79l6.4,-2.5l0.68,-2.05c0.32,-0.92 0.76,-2.33 1.31,-4.23c0.03,-0.42 0.08,-1.07 0.15,-1.96c0.02,-0.02 0.18,-0.2 0.46,-0.53l-12.16,0c-2.64,0 -4.81,2.16 -4.81,4.81l0,12.88c0,1.99 1.23,3.71 2.96,4.44c0.03,-0.94 0.51,-2.98 1.42,-6.17c0.32,-0.92 0.41,-1.23 0.6,-1.67" id="svg_9"/>
    <path class="cls-2" d="m23.99,5.37c-3,1.13 -5.28,1.95 -6.83,2.46c0.58,-2.2 0.98,-3.82 1.21,-4.87c0.41,-1.3 0.61,-2.27 0.63,-2.92l-2.05,0c-0.28,0.32 -0.44,0.51 -0.46,0.53c-0.07,0.89 -0.11,1.55 -0.15,1.96c-0.55,1.9 -0.98,3.31 -1.31,4.23l-0.68,2.05l-6.4,2.5c0.91,-3.1 1.58,-5.36 2.04,-6.79c0.45,-1.79 0.68,-2.93 0.68,-3.44c0,-0.42 -0.16,-0.62 -0.49,-0.62c-0.29,0 -0.53,0.13 -0.73,0.38c-0.19,0.25 -0.4,0.53 -0.63,0.83c-0.13,1.22 -0.53,2.83 -1.21,4.82c-0.87,2.56 -1.52,4.48 -1.94,5.76c-2.16,1.07 -3.55,1.82 -4.17,2.23c-0.19,0.15 -0.41,0.4 -0.65,0.74c-0.24,0.34 -0.35,0.62 -0.32,0.83c0.26,0.45 0.66,0.67 1.21,0.67c0.39,0 0.87,-0.12 1.45,-0.36c0.71,-0.27 1.08,-0.55 1.11,-0.85c-0.58,-0.15 -0.87,-0.36 -0.87,-0.63c0.68,-0.28 1.18,-0.45 1.53,-0.55c-0.18,0.44 -0.28,0.76 -0.6,1.67c-0.91,3.19 -1.39,5.23 -1.42,6.17c0.54,0.23 1.13,0.35 1.75,0.36c0.18,-0.11 0.38,-0.23 0.6,-0.37c0.05,-0.03 0.1,-0.06 0.15,-0.1c0.55,-0.53 0.82,-1 0.82,-1.42c0,-0.21 -0.05,-0.41 -0.14,-0.62c-0.16,0.12 -0.33,0.25 -0.52,0.4l-0.05,-0.36c0.16,-1.43 0.45,-2.83 0.87,-4.19c0.09,-0.28 0.18,-0.56 0.28,-0.84c0.27,-0.78 0.36,-0.93 0.72,-1.68l6.32,-2.77l-1.72,7.3s-0.09,0.68 -0.22,1.69c-0.13,1.16 -0.16,1.92 -0.1,2.28c0.03,0.03 0.1,0.04 0.19,0.04c0.29,0 0.78,-0.16 1.48,-0.49c0.69,-0.33 1.15,-0.6 1.38,-0.8c-0.03,-0.27 0.02,-1.33 0.14,-3.17c0.06,-0.77 0.37,-2.35 0.92,-4.74c0.52,-2.23 0.68,-2.85 0.81,-3.11c4.7,-2.02 4.84,-2.1 6.28,-2.73c0.53,-0.23 1.01,-0.44 1.46,-0.64l0,-1.02c-0.14,0.06 -0.27,0.12 -0.42,0.18" id="svg_10"/>
    <g id="svg_11">
     <path class="cls-1" d="m31.54,20.01l0,1.47c0,0.81 -0.53,1.51 -1.34,1.51c-0.54,0 -0.83,-0.28 -1.03,-0.56l0,2.33l-0.55,0l0,-6.11l0.55,0l0,0.47c0.21,-0.27 0.53,-0.54 0.94,-0.54c0.81,0 1.43,0.61 1.43,1.41l0,0.02zm-0.55,-0.03c0,-0.5 -0.41,-0.92 -0.91,-0.92s-0.91,0.42 -0.91,0.92l0,1.66c0,0.5 0.41,0.9 0.91,0.9s0.91,-0.33 0.91,-0.83l0,-1.72l0,-0.01z" id="svg_12"/>
     <path class="cls-1" d="m36.06,18.58l0,0.49l-0.31,0c-0.52,0 -0.97,0.32 -0.97,0.84l0,3l-0.55,0l0,-4.26l0.55,0l0,0.47c0.18,-0.26 0.47,-0.54 0.97,-0.54l0.31,0z" id="svg_13"/>
     <path class="cls-1" d="m41.27,20.09l0,1.44c0,0.81 -0.66,1.46 -1.46,1.46s-1.46,-0.66 -1.46,-1.46l0,-1.44c0,-0.81 0.66,-1.49 1.46,-1.49s1.46,0.69 1.46,1.49zm-0.55,-0.06c0,-0.5 -0.41,-0.97 -0.91,-0.97s-0.91,0.47 -0.91,0.97l0,1.57c0,0.5 0.41,0.97 0.91,0.97s0.91,-0.47 0.91,-0.97l0,-1.57z" id="svg_14"/>
     <path class="cls-1" d="m46.87,20.01l0,1.47c0,0.81 -0.53,1.51 -1.34,1.51c-0.54,0 -0.83,-0.28 -1.03,-0.56l0,2.33l-0.55,0l0,-6.11l0.55,0l0,0.47c0.21,-0.27 0.53,-0.54 0.94,-0.54c0.81,0 1.43,0.61 1.43,1.41l0,0.02zm-0.55,-0.03c0,-0.5 -0.41,-0.92 -0.91,-0.92s-0.91,0.42 -0.91,0.92l0,1.66c0,0.5 0.41,0.9 0.91,0.9s0.91,-0.33 0.91,-0.83l0,-1.72l0,-0.01z" id="svg_15"/>
     <path class="cls-1" d="m50.03,20.87l0,0.66c0,0.5 0.41,1 0.91,1c0.43,0 0.79,-0.39 0.89,-0.79l0.53,0.16c-0.16,0.63 -0.74,1.1 -1.42,1.1c-0.81,0 -1.46,-0.66 -1.46,-1.46l0,-1.44c0,-0.81 0.66,-1.49 1.46,-1.49s1.46,0.69 1.46,1.49l0,0.78l-2.37,0l0,-0.01zm0,-0.93l0,0.5l1.82,0l0,-0.44c0,-0.5 -0.41,-0.94 -0.91,-0.94s-0.91,0.38 -0.91,0.88l0,0z" id="svg_16"/>
     <path class="cls-1" d="m56.88,18.58l0,0.49l-0.31,0c-0.52,0 -0.97,0.32 -0.97,0.84l0,3l-0.55,0l0,-4.26l0.55,0l0,0.47c0.18,-0.26 0.47,-0.54 0.97,-0.54l0.31,0z" id="svg_17"/>
     <path class="cls-1" d="m60.25,19.15l0,2.97c0,0.17 0.13,0.36 0.3,0.36c0.21,0 0.37,-0.06 0.37,-0.06l0,0.51s-0.24,0.06 -0.37,0.06c-0.51,0 -0.85,-0.4 -0.85,-0.87l0,-2.97l-0.63,0l0,-0.49l0.63,0l0,-1.06l0.55,-0.18l0,1.25l0.67,0l0,0.49l-0.67,0l0,-0.01z" id="svg_18"/>
     <path class="cls-1" d="m66.15,18.66l-1.18,4.27l-0.09,0.28c-0.28,0.8 -0.48,1.04 -1,1.05c-0.17,0 -0.41,-0.04 -0.41,-0.04l0,-0.51s0.17,0.05 0.42,0.04c0.34,-0.02 0.43,-0.42 0.56,-0.77c0.04,-0.11 0,-0.04 0,-0.04l-1.27,-4.27l0.55,0l0.98,3.51l0.86,-3.51l0.58,0l0,-0.01z" id="svg_19"/>
    </g>
   </g>
   <path d="m181.07,3.54c1.02,-0.1 1.21,0.33 1.17,1.12l-0.03,0.37" fill="none" id="svg_22" stroke="#ffffff"/>
   <path d="m182.37,25.4c0.91,-0.02 1.28,0.09 1.51,-0.37c0.23,-0.46 -0.1,-1.04 -1.4,-2.24" fill="#054382" id="svg_23" stroke="#ffffff" stroke-linecap="round"/>
   <path d="m177.29,4.05c0.33,-0.4 0.69,-0.52 1.08,-0.49" fill="none" id="svg_31" stroke="#ffffff" stroke-linecap="round"/>
  </g>
 </g>
</svg>