<?xml version="1.0" encoding="UTF-8"?>
<svg id="Layer_2" data-name="Layer 2" xmlns="http://www.w3.org/2000/svg" viewBox="0 0 105.21 24.77">
  <defs>
    <style>
      .cls-1 {
        fill: #014386;
      }

      .cls-2 {
        fill: #fff;
      }

      .cls-3 {
        fill: #56b146;
      }

      .cls-4 {
        fill: none;
        stroke: #56b146;
        stroke-width: .4px;
      }
    </style>
  </defs>
  <g id="Vrstva_1" data-name="Vrstva 1">
    <path class="cls-1" d="M37.57,4.78V2.12c0-1.02-.06-1.12-.78-1.29-.57-.14-.59-.16-.59-.26,0-.02,.02-.07,.04-.14l.09-.23c.06-.17,.11-.19,.45-.19h4.33c.28,0,.38,.03,.38,.12,0,.03-.02,.09-.04,.14l-.08,.26c-.08,.17-.11,.21-.44,.26-.65,.12-.85,.44-.85,1.33v7.46c0,1,.08,1.12,.78,1.28,.57,.14,.59,.16,.59,.26,0,.04-.02,.09-.04,.14l-.07,.21c-.08,.17-.13,.21-.48,.21h-4.33c-.28,0-.38-.04-.38-.12,0-.04,.02-.09,.04-.14l.08-.26c.08-.17,.11-.19,.46-.26,.65-.14,.84-.44,.84-1.31v-3.76h-5.3v3.76c0,1,.08,1.12,.78,1.28,.57,.14,.59,.16,.59,.26,0,.02-.02,.07-.04,.14l-.09,.21c-.06,.19-.11,.21-.46,.21h-4.33c-.28,0-.38-.04-.38-.14,0-.02,.02-.07,.04-.12l.08-.26c.08-.17,.11-.19,.44-.26,.66-.14,.85-.44,.85-1.31V2.12c0-1.02-.08-1.14-.78-1.29-.57-.14-.59-.16-.59-.26,0-.04,.02-.09,.04-.14l.08-.23c.08-.17,.11-.19,.47-.19h4.33c.28,0,.38,.03,.38,.12,0,.03-.02,.09-.04,.14l-.08,.26c-.08,.17-.11,.21-.45,.26-.65,.12-.83,.44-.83,1.33v2.66h5.3"/>
    <path class="cls-1" d="M56.86,5.9c0,2.82-.13,3.45-.87,4.38-.89,1.07-2.13,1.59-3.8,1.59-1.99,0-3.61-.7-4.37-1.87-.47-.75-.63-1.63-.63-3.62V2.1c0-1-.08-1.12-.78-1.29-.57-.12-.59-.14-.59-.25,0-.04,.02-.09,.04-.14l.08-.23c.08-.17,.13-.19,.47-.19h4.33c.29,0,.38,.03,.38,.12,0,.03-.02,.09-.04,.14l-.08,.24c-.08,.19-.11,.21-.46,.28-.65,.14-.83,.44-.83,1.31V6.41c0,1.8,.13,2.52,.59,3.17,.49,.68,1.25,1.03,2.28,1.03,1.18,0,2.09-.49,2.54-1.4,.3-.58,.36-1.09,.36-2.99V2.1c0-1-.08-1.12-.78-1.29q-.59-.14-.59-.25s.02-.07,.04-.14l.08-.23c.08-.17,.13-.19,.47-.19h3.17c.3,0,.38,.03,.38,.12,0,.05,0,.09-.02,.14l-.09,.24c-.08,.19-.12,.21-.44,.28-.64,.12-.85,.44-.85,1.31v3.8"/>
    <path class="cls-1" d="M63.66,2.1c0-.67-.08-.89-.32-1.09-.17-.11-.23-.12-.97-.3-.11-.04-.19-.09-.19-.16,0-.04,.02-.07,.04-.14l.08-.23c.08-.16,.15-.19,.55-.19h5.35c2.28,0,3.81,.3,4.95,.94,1.52,.88,2.32,2.4,2.32,4.45,0,2.31-.99,4.17-2.85,5.32-1.29,.81-2.79,1.17-4.78,1.17-1.46,0-3.11-.16-3.66-.37-.46-.17-.51-.35-.51-1.45V2.1m2.52,6.46c0,1.24,.13,1.63,.61,1.94,.44,.26,.97,.39,1.73,.39,2.75,0,4.29-1.84,4.29-5.09,0-2.22-.65-3.62-1.99-4.29-.78-.4-1.5-.51-3.25-.51h-1.39v7.56Z"/>
    <path class="cls-1" d="M83.68,4.81h4.04c.32,0,.4,.03,.4,.14,0,.04-.02,.07-.04,.1l-.29,.47c-.17,.3-.23,.31-.74,.31h-3.38v2.91c0,1.72,.13,1.89,1.46,1.89h1.29c.93,0,1.54-.3,1.99-1,.13-.23,.23-.32,.32-.32,.02,0,.08,0,.1,.02l.28,.07c.15,.05,.17,.09,.17,.3v1.44c0,.4-.21,.53-.97,.53h-5.52c-1.04,0-1.33-.07-1.52-.35-.13-.21-.13-.28-.13-1.49V2.12c0-.91-.15-1.14-.87-1.29-.57-.14-.61-.16-.61-.26,0-.04,.02-.09,.04-.14l.08-.23c.08-.17,.15-.19,.55-.19h7.5c.53,0,.64,.09,.64,.49V1.64c0,.16-.02,.21-.11,.28l-.25,.21s-.08,.05-.12,.05c-.06,0-.11-.05-.25-.24-.57-.79-.82-.91-1.77-.91h-2.32v3.78"/>
    <path class="cls-1" d="M101.92,0h2.14V.35c0,.3-.02,.32-.82,.66-.61,.28-.74,.4-1.63,1.42l-2.49,2.64c4.1,4.59,4.93,5.48,5.73,6.09v.51h-1.9c-.95,0-1.14-.14-2.33-1.58l-3.49-4.13v3.59c0,1,.08,1.14,.78,1.3,.55,.14,.59,.16,.59,.26,0,.04-.02,.07-.04,.14l-.08,.21c-.08,.17-.13,.21-.48,.21h-4.33c-.29,0-.38-.04-.38-.14,0-.04,.02-.07,.04-.12l.08-.26c.08-.17,.11-.21,.44-.26,.66-.14,.85-.44,.85-1.33V2.1c0-1-.08-1.12-.78-1.29-.55-.12-.59-.14-.59-.25,0-.04,.02-.09,.04-.14l.08-.23c.08-.17,.13-.19,.47-.19h4.33c.29,0,.38,.03,.38,.12,0,.03-.02,.09-.04,.14l-.07,.24c-.08,.19-.12,.21-.44,.28-.65,.12-.85,.44-.85,1.31v3.27l4.78-5.37"/>
    <line class="cls-4" x1="28.45" y1="15.02" x2="105.21" y2="15.02"/>
    <path class="cls-3" d="M16.66,9.59c-.13,.27-.29,.88-.81,3.11-.55,2.38-.86,3.96-.92,4.74-.13,1.85-.18,2.91-.14,3.17-.23,.21-.69,.48-1.38,.8-.69,.33-1.19,.49-1.48,.49-.1,0-.16-.01-.19-.04-.07-.36-.03-1.12,.1-2.28,.13-1.01,.24-1.73,.22-1.69l1.72-7.3-6.32,2.77c-.36,.75-.45,.9-.72,1.68-.1,.28-.19,.56-.28,.84-.42,1.36-.71,2.75-.87,4.19l.05,.36c.19-.15,.36-.28,.52-.4,.1,.21,.14,.42,.14,.62,0,.41-.27,.89-.82,1.42-.05,.03-.1,.07-.15,.1-.22,.14-.42,.26-.6,.37,.03,0,.07,.01,.1,.01h14.78c2.65,0,4.81-2.17,4.81-4.81V6.21c-.45,.2-.93,.41-1.46,.64-1.44,.63-1.59,.72-6.28,2.73"/>
    <path class="cls-3" d="M17.16,7.83c1.55-.5,3.83-1.32,6.83-2.46,.14-.06,.28-.12,.42-.18v-.34C24.41,2.2,22.24,.04,19.59,.04h-.6c-.01,.65-.22,1.62-.63,2.92-.23,1.04-.63,2.66-1.21,4.87"/>
    <path class="cls-3" d="M4.98,14.33c-.35,.1-.85,.27-1.53,.55,0,.27,.29,.48,.87,.63-.03,.3-.4,.58-1.11,.85-.58,.24-1.07,.36-1.45,.36-.55,0-.95-.22-1.21-.67-.03-.21,.08-.48,.32-.83,.24-.34,.46-.59,.65-.74,.61-.42,2-1.16,4.17-2.23,.42-1.28,1.07-3.2,1.94-5.76,.68-1.99,1.08-3.6,1.21-4.82,.23-.3,.44-.57,.63-.83,.19-.25,.43-.38,.73-.38,.32,0,.49,.21,.49,.62,0,.51-.23,1.65-.68,3.44-.45,1.43-1.13,3.69-2.04,6.79l6.4-2.5,.68-2.05c.32-.92,.76-2.33,1.31-4.23,.03-.42,.08-1.07,.15-1.96,.02-.02,.18-.2,.46-.53H4.81C2.17,.04,0,2.2,0,4.85v12.88c0,1.99,1.23,3.71,2.96,4.44,.03-.94,.51-2.98,1.42-6.17,.32-.92,.41-1.23,.6-1.67"/>
    <path class="cls-2" d="M23.99,5.37c-3,1.13-5.28,1.95-6.83,2.46,.58-2.2,.98-3.82,1.21-4.87,.41-1.3,.61-2.27,.63-2.92h-2.05c-.28,.32-.44,.51-.46,.53-.07,.89-.11,1.55-.15,1.96-.55,1.9-.98,3.31-1.31,4.23l-.68,2.05-6.4,2.5c.91-3.1,1.58-5.36,2.04-6.79,.45-1.79,.68-2.93,.68-3.44,0-.42-.16-.62-.49-.62-.29,0-.53,.13-.73,.38-.19,.25-.4,.53-.63,.83-.13,1.22-.53,2.83-1.21,4.82-.87,2.56-1.52,4.48-1.94,5.76-2.16,1.07-3.55,1.82-4.17,2.23-.19,.15-.41,.4-.65,.74-.24,.34-.35,.62-.32,.83,.26,.45,.66,.67,1.21,.67,.39,0,.87-.12,1.45-.36,.71-.27,1.08-.55,1.11-.85-.58-.15-.87-.36-.87-.63,.68-.28,1.18-.45,1.53-.55-.18,.44-.28,.76-.6,1.67-.91,3.19-1.39,5.23-1.42,6.17,.54,.23,1.13,.35,1.75,.36,.18-.11,.38-.23,.6-.37,.05-.03,.1-.06,.15-.1,.55-.53,.82-1,.82-1.42,0-.21-.05-.41-.14-.62-.16,.12-.33,.25-.52,.4l-.05-.36c.16-1.43,.45-2.83,.87-4.19,.09-.28,.18-.56,.28-.84,.27-.78,.36-.93,.72-1.68l6.32-2.77-1.72,7.3s-.09,.68-.22,1.69c-.13,1.16-.16,1.92-.1,2.28,.03,.03,.1,.04,.19,.04,.29,0,.78-.16,1.48-.49,.69-.33,1.15-.6,1.38-.8-.03-.27,.02-1.33,.14-3.17,.06-.77,.37-2.35,.92-4.74,.52-2.23,.68-2.85,.81-3.11,4.7-2.02,4.84-2.1,6.28-2.73,.53-.23,1.01-.44,1.46-.64v-1.02c-.14,.06-.27,.12-.42,.18"/>
    <g>
      <path class="cls-1" d="M31.54,20.01v1.47c0,.81-.53,1.51-1.34,1.51-.54,0-.83-.28-1.03-.56v2.33h-.55v-6.11h.55v.47c.21-.27,.53-.54,.94-.54,.81,0,1.43,.61,1.43,1.41Zm-.55-.03c0-.5-.41-.92-.91-.92s-.91,.42-.91,.92v1.66c0,.5,.41,.9,.91,.9s.91-.33,.91-.83v-1.72Z"/>
      <path class="cls-1" d="M36.06,18.58v.49h-.31c-.52,0-.97,.32-.97,.84v3h-.55v-4.26h.55v.47c.18-.26,.47-.54,.97-.54h.31Z"/>
      <path class="cls-1" d="M41.27,20.09v1.44c0,.81-.66,1.46-1.46,1.46s-1.46-.66-1.46-1.46v-1.44c0-.81,.66-1.49,1.46-1.49s1.46,.69,1.46,1.49Zm-.55-.06c0-.5-.41-.97-.91-.97s-.91,.47-.91,.97v1.57c0,.5,.41,.97,.91,.97s.91-.47,.91-.97v-1.57Z"/>
      <path class="cls-1" d="M46.87,20.01v1.47c0,.81-.53,1.51-1.34,1.51-.54,0-.83-.28-1.03-.56v2.33h-.55v-6.11h.55v.47c.21-.27,.53-.54,.94-.54,.81,0,1.43,.61,1.43,1.41Zm-.55-.03c0-.5-.41-.92-.91-.92s-.91,.42-.91,.92v1.66c0,.5,.41,.9,.91,.9s.91-.33,.91-.83v-1.72Z"/>
      <path class="cls-1" d="M50.03,20.87v.66c0,.5,.41,1,.91,1,.43,0,.79-.39,.89-.79l.53,.16c-.16,.63-.74,1.1-1.42,1.1-.81,0-1.46-.66-1.46-1.46v-1.44c0-.81,.66-1.49,1.46-1.49s1.46,.69,1.46,1.49v.78h-2.37Zm0-.93v.5h1.82v-.44c0-.5-.41-.94-.91-.94s-.91,.38-.91,.88h0Z"/>
      <path class="cls-1" d="M56.88,18.58v.49h-.31c-.52,0-.97,.32-.97,.84v3h-.55v-4.26h.55v.47c.18-.26,.47-.54,.97-.54h.31Z"/>
      <path class="cls-1" d="M60.25,19.15v2.97c0,.17,.13,.36,.3,.36,.21,0,.37-.06,.37-.06v.51s-.24,.06-.37,.06c-.51,0-.85-.4-.85-.87v-2.97h-.63v-.49h.63v-1.06l.55-.18v1.25h.67v.49h-.67Z"/>
      <path class="cls-1" d="M66.15,18.66l-1.18,4.27-.09,.28c-.28,.8-.48,1.04-1,1.05-.17,0-.41-.04-.41-.04v-.51s.17,.05,.42,.04c.34-.02,.43-.42,.56-.77,.04-.11,0-.04,0-.04l-1.27-4.27h.55l.98,3.51,.86-3.51h.58Z"/>
    </g>
  </g>
</svg>